<svg xmlns="http://www.w3.org/2000/svg" viewBox="0 0 243.25 449.96"><defs><style>.cls-1{fill:#fff;}</style></defs><title>Asset 6</title><g id="Layer_2" data-name="Layer 2"><g id="Layer_1-2" data-name="Layer 1"><g id="OiuWnq"><path class="cls-1" d="M235.84,0c5.45,2.17,7.46,6.19,7.41,12-.18,21.09-.05,42.18-.09,63.27,0,8.75-3.13,11.72-12,11.82-14.93.15-29.87.08-44.79.69-8.08.32-15.89,2.69-19.87,10.68A30.57,30.57,0,0,0,163.13,111c-.38,16.67-.16,33.36-.16,50.73h65.27c9,0,12.16,3.12,12.16,12.14q0,34.26,0,68.54c0,8.51-3.16,11.62-11.7,11.62q-30.31,0-60.63,0h-5.27V436.65c0,10.41-2.9,13.31-13.3,13.31H80.06c-9.13,0-12.19-3-12.19-12.08q0-89,0-177.94v-5.87h-5q-25.71,0-51.41,0C3.28,254,.06,250.87,0,242.63Q0,207.92,0,173.21c0-8.12,3.39-11.43,11.52-11.45,17,0,34,0,51,0h5.35c0-1.9,0-3.45,0-5,.07-18.16-.44-36.34.35-54.47,1.11-25.82,8.84-49.44,26.35-69.13,14.64-16.47,33.23-26,54.6-30.43C154.3,1.65,159.49.9,164.66,0Z"/></g></g></g></svg>