<svg xmlns="http://www.w3.org/2000/svg" viewBox="0 0 542.63 215.11"><defs><style>.cls-1{fill:#fff;}</style></defs><title>Asset 5</title><g id="Layer_2" data-name="Layer 2"><g id="Layer_1-2" data-name="Layer 1"><path class="cls-1" d="M59.1,170H86.27c16.47,0,33-.12,49.42.08a43.31,43.31,0,0,1,13,1.88c8.72,2.92,12.52,10.91,11.31,22.1-.84,7.76-6.53,13.54-15,14.89a70.27,70.27,0,0,1-10.74.95q-48.81.13-97.63.05a142.3,142.3,0,0,1-18-1.24c-14-1.86-23.33-18.19-16.25-30.43,6.68-11.52,15.07-22.11,23.29-32.66,22.19-28.47,44.71-56.68,67-85.07,1.1-1.4,1.32-3.48,2-5.24-1.83-.6-3.66-1.7-5.49-1.72-20.49-.15-41,.22-61.47-.39a42.24,42.24,0,0,1-17.44-4.9C3.85,45,3.06,38.32,3.92,31.52S8.81,20.39,14.77,18.35a49,49,0,0,1,15.29-2.57q49.11-.31,98.23,0a51.55,51.55,0,0,1,15.29,2.71c10.54,3.42,15.78,14.88,10.2,25.47-6,11.43-13.62,22.17-21.54,32.43-22.57,29.21-45.66,58-68.52,87C62.38,165.11,61.24,167,59.1,170Z"/><path class="cls-1" d="M268.28,76.36c1.75-2.11,3.15-4.06,4.82-5.73,7.23-7.2,15.63-8.87,24.75-5.1S310.59,76.63,310.61,86q.09,51.52,0,103c0,11-4.47,17.53-14.2,21.38-9.11,3.61-16.28,2-23.76-6-3.64-3.89-6.69-4.84-11.15-1.13-20.9,17.41-48.3,13.87-69,.94-21.12-13.19-29-33.83-31.6-57.28-1.94-17.49-1-34.76,8.62-50,14.17-22.61,34.26-36.23,61.74-36.45,10.27-.08,19.54,3.9,28,9.66C262,72,264.77,73.91,268.28,76.36Zm-1.18,59.7c-.34-2.5-.47-6.76-1.55-10.78-3.09-11.5-9.44-20.47-21.53-23.71-11.25-3-21.41-.84-29.84,7.74-10.89,11.09-14,30.35-7.31,46.09,7.95,18.72,28.29,25.22,45.33,14.17C263.62,162.17,266.71,150.55,267.1,136.06Z"/><path class="cls-1" d="M542.63,128.77c-.21,33.29-7.62,54.4-27,70-12.69,10.21-27.46,15.31-43.75,16.11-13.61.68-26.81-.77-39.15-7-25.2-12.84-38.4-33.69-40.28-61.63-1.19-17.73,1.72-34.85,11.12-50.26,13.13-21.5,32.26-33.25,57.65-34.53,21.22-1.07,40.55,3.66,56.86,18C535.72,94.86,542.83,114.8,542.63,128.77ZM435.9,138.65c-.73,7.27,1.74,15.1,6.28,22.52,9.87,16.12,33.93,18.53,46.68,4.57,11.42-12.51,13.78-30.57,6.16-47.07s-25.88-23.31-41.72-14.74C440.28,111,435.65,122.92,435.9,138.65Z"/><path class="cls-1" d="M332,105.28q0-41.55,0-83.12c0-12.49,7.46-21.08,19.09-22,12.66-1.07,21.6,5.74,23.56,18.6a119.78,119.78,0,0,1,1,18q0,75.59-.14,151.16c0,16.79-16.31,29.19-30.45,23-8.52-3.76-12.88-10.87-12.95-20C331.86,162.3,332,133.79,332,105.28Z"/></g></g></svg>